<?xml version="1.0" encoding="UTF-8"?>
<svg xmlns="http://www.w3.org/2000/svg" xmlns:xlink="http://www.w3.org/1999/xlink" width="854" height="480" viewBox="0 0 854 480">
<defs>
<g>
<g id="glyph-0-0">
<path d="M 6.902344 0 L 1.238281 0 L 1.238281 -0.96875 L 3.527344 -0.96875 L 3.527344 -8.898438 L 1.179688 -8.191406 L 1.179688 -9.238281 L 4.617188 -10.3125 L 4.617188 -0.96875 L 6.902344 -0.96875 Z "/>
</g>
<g id="glyph-0-1">
<path d="M 0.78125 -0.605469 C 0.78125 -0.816406 0.855469 -1 1.007812 -1.148438 C 1.160156 -1.296875 1.335938 -1.375 1.535156 -1.375 C 1.746094 -1.375 1.921875 -1.296875 2.070312 -1.148438 C 2.21875 -1 2.292969 -0.816406 2.292969 -0.605469 C 2.292969 -0.398438 2.21875 -0.21875 2.066406 -0.0703125 C 1.917969 0.0820312 1.742188 0.15625 1.535156 0.15625 C 1.335938 0.15625 1.160156 0.0820312 1.007812 -0.0625 C 0.855469 -0.207031 0.78125 -0.386719 0.78125 -0.605469 Z "/>
</g>
<g id="glyph-0-2">
</g>
<g id="glyph-0-3">
<path d="M 12.507812 -10.027344 L 7.839844 -10.027344 C 7.664062 -9.417969 7.46875 -8.890625 7.253906 -8.4375 L 11.492188 -8.4375 L 11.492188 -3.71875 L 8.253906 -3.71875 L 8.253906 -0.371094 C 8.253906 -0.105469 8.152344 0.128906 7.945312 0.335938 C 7.738281 0.542969 7.277344 0.644531 6.5625 0.644531 C 6.332031 0.644531 6.109375 0.632812 5.890625 0.613281 L 5.625 -0.078125 L 7.148438 -0.105469 C 7.269531 -0.105469 7.371094 -0.15625 7.449219 -0.261719 C 7.53125 -0.363281 7.570312 -0.480469 7.570312 -0.613281 L 7.570312 -3.71875 L 4.289062 -3.71875 L 4.289062 -8.4375 L 6.464844 -8.4375 C 6.730469 -8.878906 6.945312 -9.410156 7.109375 -10.027344 L 2.644531 -10.027344 L 2.644531 -5.304688 C 2.644531 -2.875 2.257812 -0.871094 1.492188 0.710938 L 0.851562 0.332031 C 1.203125 -0.292969 1.472656 -1.128906 1.664062 -2.179688 C 1.851562 -3.226562 1.945312 -4.253906 1.945312 -5.265625 L 1.945312 -10.691406 L 12.507812 -10.691406 L 12.507812 -10.027344 M 10.800781 -6.453125 L 10.800781 -7.773438 L 4.972656 -7.773438 L 4.972656 -6.453125 L 10.800781 -6.453125 M 10.800781 -4.402344 L 10.800781 -5.800781 L 4.972656 -5.800781 L 4.972656 -4.402344 L 10.800781 -4.402344 M 12.492188 -0.359375 L 11.933594 0.117188 C 11.320312 -0.84375 10.539062 -1.710938 9.589844 -2.492188 L 10.164062 -3.015625 C 11.109375 -2.121094 11.886719 -1.234375 12.492188 -0.359375 M 6.160156 -2.65625 C 5.570312 -1.757812 4.753906 -0.851562 3.71875 0.0664062 L 3.144531 -0.46875 C 4.261719 -1.375 5.054688 -2.21875 5.535156 -3 Z "/>
</g>
<g id="glyph-0-4">
<path d="M 12.644531 -5.800781 L 12.039062 -5.46875 C 11.894531 -5.8125 11.722656 -6.171875 11.515625 -6.550781 C 10.210938 -6.289062 8.398438 -6.058594 6.082031 -5.851562 L 5.929688 -6.453125 C 6.9375 -7.457031 7.796875 -8.984375 8.507812 -11.027344 L 9.171875 -10.851562 C 8.617188 -9.070312 7.878906 -7.65625 6.960938 -6.613281 C 8.402344 -6.722656 9.804688 -6.90625 11.171875 -7.160156 C 10.84375 -7.726562 10.398438 -8.367188 9.835938 -9.082031 L 10.410156 -9.441406 C 11.410156 -8.148438 12.152344 -6.933594 12.644531 -5.800781 M 6.144531 -7.988281 C 5.859375 -7.941406 5.628906 -7.902344 5.457031 -7.878906 C 5.355469 -6.019531 5.003906 -4.289062 4.402344 -2.683594 C 5.039062 -2.160156 5.535156 -1.710938 5.890625 -1.335938 L 5.480469 -0.800781 C 4.90625 -1.351562 4.4375 -1.777344 4.082031 -2.078125 C 3.414062 -0.984375 2.515625 -0.0546875 1.386719 0.710938 L 0.917969 0.1875 C 2.078125 -0.589844 2.953125 -1.492188 3.546875 -2.519531 C 2.859375 -3.097656 2.097656 -3.652344 1.269531 -4.1875 C 1.539062 -5.171875 1.804688 -6.269531 2.0625 -7.480469 L 0.945312 -7.441406 L 0.917969 -8.117188 C 1.199219 -8.109375 1.632812 -8.121094 2.214844 -8.15625 C 2.492188 -9.589844 2.664062 -10.542969 2.734375 -11.015625 L 3.410156 -10.917969 C 3.308594 -10.210938 3.148438 -9.320312 2.9375 -8.242188 C 3.625 -8.285156 4.25 -8.351562 4.8125 -8.4375 C 4.851562 -8.734375 4.871094 -9.097656 4.871094 -9.53125 L 5.546875 -9.519531 C 5.546875 -9.132812 5.535156 -8.804688 5.507812 -8.535156 L 6.144531 -8.640625 L 6.144531 -7.988281 M 4.773438 -7.773438 C 4.222656 -7.683594 3.5625 -7.605469 2.800781 -7.546875 C 2.601562 -6.609375 2.355469 -5.574219 2.0625 -4.441406 L 3.855469 -3.15625 C 4.363281 -4.308594 4.667969 -5.847656 4.773438 -7.773438 M 11.882812 0.722656 L 11.199219 0.722656 L 11.199219 -0.105469 L 7.109375 -0.105469 L 7.109375 0.722656 L 6.414062 0.722656 L 6.414062 -4.695312 L 11.882812 -4.695312 L 11.882812 0.722656 M 11.199219 -0.789062 L 11.199219 -4.023438 L 7.109375 -4.023438 L 7.109375 -0.789062 Z "/>
</g>
<g id="glyph-0-5">
<path d="M 6.707031 0 L 0.671875 0 L 0.671875 -0.984375 L 3.605469 -3.9375 C 4.578125 -4.917969 5.175781 -5.628906 5.398438 -6.070312 C 5.625 -6.511719 5.734375 -6.980469 5.734375 -7.472656 C 5.734375 -8.070312 5.566406 -8.527344 5.230469 -8.847656 C 4.894531 -9.167969 4.410156 -9.328125 3.78125 -9.328125 C 2.882812 -9.328125 2.019531 -8.941406 1.191406 -8.164062 L 1.191406 -9.324219 C 1.96875 -9.945312 2.878906 -10.253906 3.925781 -10.253906 C 4.792969 -10.253906 5.488281 -10.011719 6.011719 -9.53125 C 6.535156 -9.050781 6.796875 -8.394531 6.796875 -7.570312 C 6.796875 -6.9375 6.625 -6.3125 6.277344 -5.699219 C 5.933594 -5.085938 5.28125 -4.300781 4.324219 -3.339844 L 1.972656 -1.015625 L 1.972656 -0.988281 L 6.707031 -0.988281 Z "/>
</g>
<g id="glyph-0-6">
<path d="M 1.335938 0 L 1.335938 -10.085938 L 4.070312 -10.085938 C 7.613281 -10.085938 9.386719 -8.445312 9.386719 -5.167969 C 9.386719 -3.597656 8.910156 -2.34375 7.957031 -1.40625 C 7 -0.46875 5.671875 0 3.964844 0 L 1.335938 0 M 2.441406 -9.070312 L 2.441406 -1.015625 L 3.976562 -1.015625 C 5.320312 -1.015625 6.363281 -1.375 7.109375 -2.097656 C 7.855469 -2.816406 8.230469 -3.832031 8.230469 -5.136719 C 8.230469 -7.757812 6.832031 -9.070312 4.042969 -9.070312 Z "/>
</g>
<g id="glyph-0-7">
<path d="M 12.292969 -9.363281 C 11.839844 -8.722656 11.421875 -8.21875 11.042969 -7.851562 L 10.535156 -8.332031 C 10.875 -8.679688 11.199219 -9.058594 11.503906 -9.464844 L 6.628906 -9.464844 C 6.265625 -9.011719 5.863281 -8.609375 5.410156 -8.269531 L 4.949219 -8.730469 C 5.710938 -9.304688 6.355469 -10.085938 6.882812 -11.082031 L 7.53125 -10.851562 L 7.109375 -10.117188 L 12.292969 -10.117188 L 12.292969 -9.363281 M 4.617188 -9.746094 L 1.257812 -9.746094 L 1.257812 -10.382812 L 4.617188 -10.382812 L 4.617188 -9.746094 M 12.570312 -6.921875 L 12.277344 -6.269531 C 10.574219 -6.519531 9.246094 -7.039062 8.292969 -7.824219 C 7.53125 -7.09375 6.511719 -6.585938 5.242188 -6.308594 L 4.882812 -6.945312 C 6.519531 -7.199219 7.648438 -7.863281 8.269531 -8.945312 L 8.996094 -8.816406 C 8.972656 -8.707031 8.871094 -8.53125 8.691406 -8.292969 C 9.589844 -7.554688 10.882812 -7.097656 12.570312 -6.921875 M 4.71875 -7.34375 L 0.988281 -7.34375 L 0.988281 -8.015625 L 4.71875 -8.015625 L 4.71875 -7.34375 M 10.574219 -1.199219 L 5.28125 -1.199219 L 5.613281 -0.761719 C 4.234375 -0.0664062 2.777344 0.441406 1.238281 0.761719 L 0.890625 0.128906 C 2.320312 -0.109375 3.675781 -0.550781 4.960938 -1.199219 L 2.890625 -1.199219 L 2.890625 -6.082031 L 10.574219 -6.082031 L 10.574219 -1.199219 M 9.882812 -4.695312 L 9.882812 -5.457031 L 3.601562 -5.457031 L 3.601562 -4.695312 L 9.882812 -4.695312 M 9.882812 -3.269531 L 9.882812 -4.09375 L 3.601562 -4.09375 L 3.601562 -3.269531 L 9.882812 -3.269531 M 9.882812 -1.828125 L 9.882812 -2.667969 L 3.601562 -2.667969 L 3.601562 -1.828125 L 9.882812 -1.828125 M 12.492188 0.164062 L 12.175781 0.773438 C 10.875 0.289062 9.585938 -0.0859375 8.308594 -0.34375 L 8.640625 -0.945312 C 10.023438 -0.660156 11.308594 -0.292969 12.492188 0.164062 Z "/>
</g>
<g id="glyph-0-8">
<path d="M 6.308594 -5.988281 L 4.25 -5.988281 L 4.25 0.664062 L 3.5625 0.664062 L 3.5625 -5.988281 L 1.09375 -5.988281 L 1.09375 -6.628906 L 3.5625 -6.628906 L 3.5625 -11.027344 L 4.25 -11.027344 L 4.25 -6.628906 L 6.308594 -6.628906 L 6.308594 -5.988281 M 12.558594 -2.960938 L 11.183594 -2.695312 L 11.183594 0.691406 L 10.507812 0.691406 L 10.507812 -2.558594 L 6.375 -1.785156 L 6.28125 -2.453125 L 10.507812 -3.253906 L 10.507812 -10.988281 L 11.183594 -10.988281 L 11.183594 -3.386719 L 12.46875 -3.625 L 12.558594 -2.960938 M 6.476562 -9.835938 C 6.191406 -8.851562 5.867188 -8.019531 5.507812 -7.34375 L 4.871094 -7.65625 C 5.261719 -8.3125 5.59375 -9.117188 5.867188 -10.078125 L 6.476562 -9.835938 M 2.773438 -7.695312 L 2.109375 -7.429688 C 1.957031 -8.078125 1.632812 -8.875 1.132812 -9.8125 L 1.730469 -10.078125 C 2.234375 -9.183594 2.582031 -8.390625 2.773438 -7.695312 M 9.773438 -8.183594 L 9.25 -7.667969 C 8.714844 -8.277344 8 -8.882812 7.109375 -9.492188 L 7.570312 -9.988281 C 8.308594 -9.519531 9.042969 -8.917969 9.773438 -8.183594 M 9.542969 -4.589844 L 9.023438 -4.054688 C 8.570312 -4.730469 7.84375 -5.472656 6.84375 -6.28125 L 7.34375 -6.769531 C 8.207031 -6.070312 8.941406 -5.34375 9.542969 -4.589844 M 6.375 -2.960938 L 5.675781 -2.734375 C 5.574219 -3.335938 5.296875 -4.097656 4.851562 -5.011719 L 5.46875 -5.226562 C 5.914062 -4.308594 6.21875 -3.550781 6.375 -2.960938 M 2.851562 -5.027344 C 2.539062 -3.507812 2.125 -2.253906 1.613281 -1.269531 L 0.945312 -1.5625 C 1.464844 -2.523438 1.890625 -3.742188 2.226562 -5.226562 Z "/>
</g>
<g id="glyph-0-9">
<path d="M 3.152344 2.292969 C 1.703125 0.632812 0.976562 -1.414062 0.976562 -3.847656 C 0.976562 -6.296875 1.703125 -8.375 3.152344 -10.085938 L 4.140625 -10.085938 C 2.664062 -8.300781 1.925781 -6.226562 1.925781 -3.859375 C 1.925781 -1.507812 2.660156 0.542969 4.128906 2.292969 Z "/>
</g>
<g id="glyph-0-10">
<path d="M 12.644531 -0.398438 L 12.148438 0.128906 C 10.992188 -0.59375 10.066406 -1.558594 9.363281 -2.761719 L 9.363281 -0.292969 C 9.363281 -0.0117188 9.273438 0.226562 9.101562 0.417969 C 8.929688 0.613281 8.507812 0.710938 7.839844 0.710938 C 7.609375 0.710938 7.40625 0.699219 7.226562 0.675781 L 7 0.0117188 C 7.191406 0.0273438 7.445312 0.03125 7.765625 0.03125 C 8.15625 0.03125 8.402344 0.00390625 8.503906 -0.0546875 C 8.601562 -0.113281 8.652344 -0.214844 8.652344 -0.359375 L 8.652344 -5.574219 L 6.066406 -5.574219 L 6.066406 -9.71875 L 7.851562 -9.71875 C 8.109375 -10.085938 8.351562 -10.53125 8.585938 -11.054688 L 9.25 -10.761719 C 9.070312 -10.367188 8.863281 -10.019531 8.640625 -9.71875 L 11.828125 -9.71875 L 11.828125 -5.574219 L 9.363281 -5.574219 L 9.363281 -4.054688 C 9.429688 -3.863281 9.558594 -3.617188 9.746094 -3.308594 C 10.34375 -3.75 10.890625 -4.296875 11.386719 -4.949219 L 11.855469 -4.414062 C 11.359375 -3.828125 10.78125 -3.273438 10.117188 -2.746094 C 10.773438 -1.835938 11.613281 -1.050781 12.644531 -0.398438 M 11.121094 -7.976562 L 11.121094 -9.09375 L 6.757812 -9.09375 L 6.757812 -7.976562 L 11.121094 -7.976562 M 11.121094 -6.199219 L 11.121094 -7.332031 L 6.757812 -7.332031 L 6.757812 -6.199219 L 11.121094 -6.199219 M 5.664062 -8.5625 C 4.910156 -7.136719 3.746094 -5.582031 2.175781 -3.894531 C 2.886719 -3.984375 3.605469 -4.148438 4.335938 -4.386719 C 4.25 -4.652344 4.132812 -4.933594 3.984375 -5.226562 L 4.628906 -5.371094 C 4.929688 -4.785156 5.183594 -4.117188 5.398438 -3.371094 L 4.757812 -3.117188 C 4.722656 -3.292969 4.65625 -3.519531 4.558594 -3.800781 C 3.523438 -3.445312 2.382812 -3.207031 1.132812 -3.078125 L 0.976562 -3.613281 C 1.929688 -4.558594 2.824219 -5.582031 3.652344 -6.679688 C 2.722656 -6.515625 1.949219 -6.417969 1.335938 -6.386719 L 1.296875 -6.933594 C 2.40625 -8.277344 3.207031 -9.625 3.691406 -10.976562 L 4.375 -10.722656 C 3.878906 -9.496094 3.199219 -8.3125 2.332031 -7.175781 C 2.964844 -7.203125 3.582031 -7.296875 4.1875 -7.453125 C 4.542969 -7.992188 4.8125 -8.449219 5 -8.828125 L 5.664062 -8.5625 M 8.078125 -4.453125 C 7.960938 -2.460938 7.085938 -0.882812 5.457031 0.28125 L 5.011719 -0.28125 C 6.34375 -1.152344 7.117188 -2.332031 7.332031 -3.816406 L 5.75 -3.816406 L 5.75 -4.453125 L 8.078125 -4.453125 M 5.710938 -1.296875 L 5.089844 -1.144531 C 4.9375 -1.714844 4.734375 -2.230469 4.480469 -2.695312 L 5.128906 -2.800781 C 5.390625 -2.292969 5.582031 -1.789062 5.710938 -1.296875 M 4.109375 0.265625 L 3.386719 0.441406 C 3.375 -0.546875 3.273438 -1.546875 3.078125 -2.558594 L 3.730469 -2.625 C 3.9375 -1.667969 4.066406 -0.707031 4.109375 0.265625 M 2.375 -2.558594 C 2.214844 -1.433594 1.929688 -0.332031 1.515625 0.75 L 0.878906 0.410156 C 1.226562 -0.386719 1.507812 -1.394531 1.71875 -2.609375 Z "/>
</g>
<g id="glyph-0-11">
<path d="M 5.078125 -6.796875 L 4.640625 -6.28125 C 4.273438 -6.722656 3.917969 -7.09375 3.574219 -7.402344 L 3.574219 0.652344 L 2.878906 0.652344 L 2.878906 -11.003906 L 3.574219 -11.003906 L 3.574219 -8.292969 C 4.097656 -7.847656 4.601562 -7.347656 5.078125 -6.796875 M 12.480469 0.371094 L 4.871094 0.371094 L 4.871094 -0.320312 L 8.585938 -0.320312 L 8.585938 -3.800781 L 5.507812 -3.800781 L 5.507812 -4.480469 L 8.585938 -4.480469 L 8.585938 -7.429688 L 6.652344 -7.429688 C 6.316406 -6.539062 5.929688 -5.777344 5.496094 -5.148438 L 4.921875 -5.507812 C 5.816406 -7.03125 6.394531 -8.578125 6.652344 -10.148438 L 7.34375 -10 C 7.222656 -9.292969 7.074219 -8.667969 6.894531 -8.132812 L 8.585938 -8.132812 L 8.585938 -10.957031 L 9.324219 -10.957031 L 9.324219 -8.132812 L 12.253906 -8.132812 L 12.253906 -7.429688 L 9.324219 -7.429688 L 9.324219 -4.480469 L 11.945312 -4.480469 L 11.945312 -3.800781 L 9.324219 -3.800781 L 9.324219 -0.320312 L 12.480469 -0.320312 L 12.480469 0.371094 M 2.253906 -8.027344 C 2.097656 -6.75 1.871094 -5.675781 1.574219 -4.796875 L 0.890625 -4.988281 C 1.199219 -5.941406 1.417969 -6.984375 1.550781 -8.117188 Z "/>
</g>
<g id="glyph-0-12">
<path d="M 12.707031 -2.960938 L 12.265625 -2.390625 C 10.273438 -3.972656 8.554688 -5.136719 7.109375 -5.878906 L 7.109375 0.75 L 6.359375 0.75 L 6.359375 -6.757812 C 5.101562 -5.257812 3.410156 -3.804688 1.28125 -2.402344 L 0.8125 -3.015625 C 4.085938 -4.96875 6.308594 -7.277344 7.480469 -9.949219 L 1.082031 -9.949219 L 1.082031 -10.664062 L 12.414062 -10.664062 L 12.414062 -9.949219 L 8.292969 -9.949219 C 7.972656 -9.257812 7.578125 -8.53125 7.109375 -7.773438 L 7.109375 -6.707031 C 9.597656 -5.265625 11.460938 -4.015625 12.707031 -2.960938 Z "/>
</g>
<g id="glyph-0-13">
<path d="M 12.492188 -10.039062 L 11.003906 -10.039062 L 11.003906 -0.242188 C 11.003906 0.0507812 10.898438 0.269531 10.691406 0.421875 C 10.488281 0.574219 10.238281 0.652344 9.949219 0.652344 C 8.761719 0.652344 7.972656 0.648438 7.570312 0.636719 L 7.316406 -0.105469 C 7.867188 -0.0625 8.726562 -0.0390625 9.894531 -0.0390625 C 10.179688 -0.0390625 10.320312 -0.171875 10.320312 -0.441406 L 10.320312 -10.039062 L 0.890625 -10.039062 L 0.890625 -10.710938 L 12.492188 -10.710938 L 12.492188 -10.039062 M 7.976562 -2.414062 L 2.34375 -2.414062 L 2.34375 -7.8125 L 7.976562 -7.8125 L 7.976562 -2.414062 M 7.277344 -3.105469 L 7.277344 -7.109375 L 3.039062 -7.109375 L 3.039062 -3.105469 Z "/>
</g>
<g id="glyph-0-14">
<path d="M 5.597656 -10.710938 C 4.53125 -8.261719 3.113281 -6.429688 1.347656 -5.214844 L 0.867188 -5.761719 C 2.582031 -6.90625 3.921875 -8.625 4.894531 -10.917969 L 5.597656 -10.710938 M 12.597656 -5.851562 L 12.121094 -5.253906 C 10.363281 -6.503906 9.144531 -8.140625 8.464844 -10.164062 L 7.46875 -10.164062 L 7.46875 -10.878906 L 8.957031 -10.878906 C 9.621094 -8.664062 10.835938 -6.988281 12.597656 -5.851562 M 10.441406 -6.027344 C 10.421875 -4.601562 10.335938 -3.316406 10.1875 -2.179688 C 10.042969 -1.042969 9.894531 -0.339844 9.753906 -0.0664062 C 9.609375 0.207031 9.410156 0.402344 9.15625 0.519531 C 8.902344 0.636719 8.460938 0.695312 7.832031 0.695312 C 7.558594 0.695312 7.203125 0.6875 6.769531 0.664062 L 6.613281 -0.0507812 C 7.101562 -0.0078125 7.550781 0.0117188 7.960938 0.0117188 C 8.363281 0.0117188 8.617188 -0.0117188 8.734375 -0.0664062 C 8.847656 -0.117188 8.949219 -0.191406 9.03125 -0.289062 C 9.117188 -0.386719 9.210938 -0.679688 9.316406 -1.164062 C 9.421875 -1.644531 9.503906 -2.246094 9.566406 -2.957031 C 9.628906 -3.671875 9.671875 -4.460938 9.695312 -5.320312 L 6.269531 -5.320312 C 5.96875 -2.703125 4.503906 -0.644531 1.867188 0.851562 L 1.4375 0.292969 C 3.882812 -1.078125 5.238281 -2.949219 5.507812 -5.320312 L 2.988281 -5.320312 L 2.988281 -6.027344 Z "/>
</g>
<g id="glyph-0-15">
<path d="M 0.175781 2.292969 C 1.636719 0.550781 2.371094 -1.5 2.371094 -3.859375 C 2.371094 -6.234375 1.632812 -8.308594 0.15625 -10.085938 L 1.152344 -10.085938 C 2.609375 -8.375 3.339844 -6.296875 3.339844 -3.847656 C 3.339844 -1.417969 2.609375 0.628906 1.152344 2.292969 Z "/>
</g>
</g>
</defs>
<g fill="rgb(100%, 100%, 100%)" fill-opacity="1">
<use xlink:href="#glyph-0-0" x="30" y="34.341797"/>
<use xlink:href="#glyph-0-1" x="38" y="34.341797"/>
<use xlink:href="#glyph-0-2" x="41" y="34.341797"/>
<use xlink:href="#glyph-0-3" x="44" y="34.341797"/>
<use xlink:href="#glyph-0-4" x="57" y="34.341797"/>
<use xlink:href="#glyph-0-2" x="70" y="34.341797"/>
<use xlink:href="#glyph-0-5" x="73" y="34.341797"/>
</g>
<g fill="rgb(100%, 100%, 100%)" fill-opacity="1">
<use xlink:href="#glyph-0-6" x="81" y="34.341797"/>
<use xlink:href="#glyph-0-2" x="91" y="34.341797"/>
</g>
<g fill="rgb(100%, 100%, 100%)" fill-opacity="1">
<use xlink:href="#glyph-0-7" x="94" y="34.341797"/>
<use xlink:href="#glyph-0-8" x="107" y="34.341797"/>
<use xlink:href="#glyph-0-2" x="120" y="34.341797"/>
<use xlink:href="#glyph-0-9" x="123" y="34.341797"/>
<use xlink:href="#glyph-0-10" x="127" y="34.341797"/>
<use xlink:href="#glyph-0-11" x="140" y="34.341797"/>
<use xlink:href="#glyph-0-12" x="153" y="34.341797"/>
<use xlink:href="#glyph-0-13" x="166" y="34.341797"/>
<use xlink:href="#glyph-0-14" x="179" y="34.341797"/>
<use xlink:href="#glyph-0-15" x="192" y="34.341797"/>
</g>
</svg>
